<?xml version="1.0"?>
<svg xmlns="http://www.w3.org/2000/svg" viewBox="0 0 64 64" width="512" height="512"><g id="Cassete"><circle cx="5" cy="16" r="1"/><circle cx="5" cy="48" r="1"/><circle cx="59" cy="16" r="1"/><circle cx="59" cy="48" r="1"/><path d="M52,43H46a1,1,0,0,0,0,2h6a1,1,0,0,0,0-2Z"/><path d="M56,43H55a1,1,0,0,0,0,2h1a1,1,0,0,0,0-2Z"/><path d="M60,12H4a3,3,0,0,0-3,3V49a3,3,0,0,0,3,3H60a3,3,0,0,0,3-3V15A3,3,0,0,0,60,12ZM21.281,50l1.5-6H41.219l1.5,6ZM61,49a1,1,0,0,1-1,1H44.781L42.97,42.757A1,1,0,0,0,42,42H22a1,1,0,0,0-.97.757L19.219,50H4a1,1,0,0,1-1-1V15a1,1,0,0,1,1-1H60a1,1,0,0,1,1,1Z"/><path d="M58,19a1,1,0,0,0-1-1H7a1,1,0,0,0-1,1V40a1,1,0,0,0,1,1H57a1,1,0,0,0,1-1ZM56,39H8V37H56Zm0-4H8V24H56Zm0-13H8V20H56Z"/><path d="M24,29.5A5.5,5.5,0,1,0,18.5,35,5.506,5.506,0,0,0,24,29.5ZM18.5,33A3.5,3.5,0,1,1,22,29.5,3.5,3.5,0,0,1,18.5,33Z"/><path d="M51,29.5A5.5,5.5,0,1,0,45.5,35,5.506,5.506,0,0,0,51,29.5ZM45.5,33A3.5,3.5,0,1,1,49,29.5,3.5,3.5,0,0,1,45.5,33Z"/><path d="M37,26H27a1,1,0,0,0-1,1v5a1,1,0,0,0,1,1H37a1,1,0,0,0,1-1V27A1,1,0,0,0,37,26Zm-1,5H28V28h8Z"/></g></svg>
