<svg height="512" viewBox="0 0 60 60" width="512" xmlns="http://www.w3.org/2000/svg"><g id="Page-1" fill="none" fill-rule="evenodd"><g id="023---Vinyl-Player" fill="#000" fill-rule="nonzero"><path id="Shape" d="m55 0h-50c-2.76005315.00330612-4.99669388 2.23994685-5 5v50c.00330612 2.7600532 2.23994685 4.9966939 5 5h50c2.7600532-.0033061 4.9966939-2.2399468 5-5v-50c-.0033061-2.76005315-2.2399468-4.99669388-5-5zm3 55c0 1.6568542-1.3431458 3-3 3h-50c-1.65685425 0-3-1.3431458-3-3v-50c0-1.65685425 1.34314575-3 3-3h50c1.6568542 0 3 1.34314575 3 3z"/><path id="Shape" d="m24 50c11.045695 0 20-8.954305 20-20s-8.954305-20-20-20-20 8.954305-20 20c.01267466 11.0404407 8.9595593 19.9873253 20 20zm0-38c9.9411255 0 18 8.0588745 18 18s-8.0588745 18-18 18-18-8.0588745-18-18c.01157214-9.9363282 8.0636718-17.9884279 18-18z"/><path id="Shape" d="m24 46c8.836556 0 16-7.163444 16-16s-7.163444-16-16-16-16 7.163444-16 16c.01046962 8.8322157 7.1677843 15.9895304 16 16zm0-30c7.7319865 0 14 6.2680135 14 14s-6.2680135 14-14 14-14-6.2680135-14-14c.0082673-7.7285595 6.2714405-13.9917327 14-14z"/><path id="Shape" d="m20.287 20.715c.5127964-.2057261.7617261-.7882036.556-1.301s-.7882036-.7617261-1.301-.556c-3.4864137 1.4084004-6.1183552 4.3597235-7.12 7.984-.1452509.5329548.1690452 1.0827491.702 1.228s1.0827491-.1690452 1.228-.702c.8345457-3.0207856 3.0286999-5.4803826 5.935-6.653z"/><path id="Shape" d="m24 33c1.6568542 0 3-1.3431458 3-3s-1.3431458-3-3-3-3 1.3431458-3 3 1.3431458 3 3 3zm0-4c.5522847 0 1 .4477153 1 1s-.4477153 1-1 1-1-.4477153-1-1 .4477153-1 1-1z"/><path id="Shape" d="m42 10c1.6568542 0 3-1.34314575 3-3s-1.3431458-3-3-3-3 1.34314575-3 3 1.3431458 3 3 3zm0-4c.5522847 0 1 .44771525 1 1s-.4477153 1-1 1-1-.44771525-1-1 .4477153-1 1-1z"/><path id="Shape" d="m50 10c1.6568542 0 3-1.34314575 3-3s-1.3431458-3-3-3-3 1.34314575-3 3 1.3431458 3 3 3zm0-4c.5522847 0 1 .44771525 1 1s-.4477153 1-1 1-1-.44771525-1-1 .4477153-1 1-1z"/><path id="Shape" d="m55 52h-38.184c-.4222546-1.1943509-1.5492146-1.9947486-2.816-2h-4c-1.26678543.0052514-2.39374545.8056491-2.816 2h-2.184c-.55228475 0-1 .4477153-1 1s.44771525 1 1 1h2.184c.42225455 1.1943509 1.54921457 1.9947486 2.816 2h4c1.2667854-.0052514 2.3937454-.8056491 2.816-2h38.184c.5522847 0 1-.4477153 1-1s-.4477153-1-1-1zm-41 2h-4c-.55228475 0-1-.4477153-1-1s.44771525-1 1-1h4c.5522847 0 1 .4477153 1 1s-.4477153 1-1 1z"/><circle id="Oval" cx="6" cy="6" r="1"/><circle id="Oval" cx="11" cy="6" r="1"/><circle id="Oval" cx="16" cy="6" r="1"/><circle id="Oval" cx="21" cy="6" r="1"/><path id="Shape" d="m45.293 47.293c-.2599566.2510745-.3642126.6228779-.2726972.9725073.0915155.3496295.3645604.6226744.7141899.7141899.3496294.0915154.7214328-.0127406.9725073-.2726972l5-5c.1875494-.1874927.2929434-.4418052.293-.707v-16c1.6568542 0 3-1.3431458 3-3v-9c0-1.6568542-1.3431458-3-3-3h-2c-1.6568542 0-3 1.3431458-3 3v9c0 1.6568542 1.3431458 3 3 3v15.586zm3.707-23.293v-9c0-.5522847.4477153-1 1-1h2c.5522847 0 1 .4477153 1 1v9c0 .5522847-.4477153 1-1 1h-2c-.5522847 0-1-.4477153-1-1z"/></g></g></svg>